<mxfile host="app.diagrams.net" modified="2023-04-10T10:51:43.383Z" agent="Mozilla/5.0 (Windows NT 10.0; Win64; x64) AppleWebKit/537.36 (KHTML, like Gecko) Chrome/88.0.4324.190 Chrome-keda/88.0.4324.190.20210521 Safari/537.36" version="21.1.5" etag="i558q5_vOrskTBzyjsA4" type="github">
  <diagram name="第 1 页" id="gXaBrj3kgbxLQr64ng6z">
    <mxGraphModel>
      <root>
        <mxCell id="0" />
        <mxCell id="1" parent="0" />
      </root>
    </mxGraphModel>
  </diagram>
</mxfile>
